<svg xmlns="http://www.w3.org/2000/svg" xmlns:xlink="http://www.w3.org/1999/xlink" width="745" height="1033" viewBox="0 0 745 1033">
  <defs>
    <clipPath id="clip-아트보드_1">
      <rect width="745" height="1033"/>
    </clipPath>
  </defs>
  <g id="아트보드_1" data-name="아트보드 – 1" clip-path="url(#clip-아트보드_1)">
    <rect width="745" height="1033" fill="#fff"/>
    <g id="그룹_23" data-name="그룹 23" transform="translate(-3832 670)">
      <g id="그룹_22" data-name="그룹 22" transform="translate(563.5 -559.5)">
        <g id="그룹_14" data-name="그룹 14">
          <path id="선_1" data-name="선 1" d="M.5,1033h-1V0h1Z" transform="translate(3364.5 -110.5)"/>
          <path id="선_24" data-name="선 24" d="M.5,1033h-1V0h1Z" transform="translate(3748.5 -110.5)"/>
          <path id="선_12" data-name="선 12" d="M.5,1033h-1V0h1Z" transform="translate(3556.5 -110.5)"/>
          <path id="선_20" data-name="선 20" d="M.5,1033h-1V0h1Z" transform="translate(3940.5 -110.5)"/>
          <path id="선_7" data-name="선 7" d="M.5,1033h-1V0h1Z" transform="translate(3268.5 -110.5)"/>
          <path id="선_32" data-name="선 32" d="M.5,1033h-1V0h1Z" transform="translate(3652.5 -110.5)"/>
          <path id="선_16" data-name="선 16" d="M.5,1033h-1V0h1Z" transform="translate(3460.5 -110.5)"/>
          <path id="선_25" data-name="선 25" d="M.5,1033h-1V0h1Z" transform="translate(3844.5 -110.5)"/>
          <path id="선_4" data-name="선 4" d="M.5,1033h-1V0h1Z" transform="translate(3412.5 -110.5)"/>
          <path id="선_26" data-name="선 26" d="M.5,1033h-1V0h1Z" transform="translate(3796.5 -110.5)"/>
          <path id="선_10" data-name="선 10" d="M.5,1033h-1V0h1Z" transform="translate(3604.5 -110.5)"/>
          <path id="선_17" data-name="선 17" d="M.5,1033h-1V0h1Z" transform="translate(3988.5 -110.5)"/>
          <path id="선_5" data-name="선 5" d="M.5,1033h-1V0h1Z" transform="translate(3316.5 -110.5)"/>
          <path id="선_30" data-name="선 30" d="M.5,1033h-1V0h1Z" transform="translate(3700.5 -110.5)"/>
          <path id="선_14" data-name="선 14" d="M.5,1033h-1V0h1Z" transform="translate(3508.5 -110.5)"/>
          <path id="선_21" data-name="선 21" d="M.5,1033h-1V0h1Z" transform="translate(3892.5 -110.5)"/>
          <path id="선_2" data-name="선 2" d="M.5,1033h-1V0h1Z" transform="translate(3388.5 -110.5)"/>
          <path id="선_27" data-name="선 27" d="M.5,1033h-1V0h1Z" transform="translate(3772.5 -110.5)"/>
          <path id="선_11" data-name="선 11" d="M.5,1033h-1V0h1Z" transform="translate(3580.5 -110.5)"/>
          <path id="선_18" data-name="선 18" d="M.5,1033h-1V0h1Z" transform="translate(3964.5 -110.5)"/>
          <path id="선_8" data-name="선 8" d="M.5,1033h-1V0h1Z" transform="translate(3292.5 -110.5)"/>
          <path id="선_31" data-name="선 31" d="M.5,1033h-1V0h1Z" transform="translate(3676.5 -110.5)"/>
          <path id="선_15" data-name="선 15" d="M.5,1033h-1V0h1Z" transform="translate(3484.5 -110.5)"/>
          <path id="선_22" data-name="선 22" d="M.5,1033h-1V0h1Z" transform="translate(3868.5 -110.5)"/>
          <path id="선_3" data-name="선 3" d="M.5,1033h-1V0h1Z" transform="translate(3436.5 -110.5)"/>
          <path id="선_28" data-name="선 28" d="M.5,1033h-1V0h1Z" transform="translate(3820.5 -110.5)"/>
          <path id="선_9" data-name="선 9" d="M.5,1033h-1V0h1Z" transform="translate(3628.5 -110.5)"/>
          <path id="선_19" data-name="선 19" d="M.5,1033h-1V0h1Z" transform="translate(4012.5 -110.5)"/>
          <path id="선_6" data-name="선 6" d="M.5,1033h-1V0h1Z" transform="translate(3340.5 -110.5)"/>
          <path id="선_29" data-name="선 29" d="M.5,1033h-1V0h1Z" transform="translate(3724.5 -110.5)"/>
          <path id="선_13" data-name="선 13" d="M.5,1033h-1V0h1Z" transform="translate(3532.5 -110.5)"/>
          <path id="선_23" data-name="선 23" d="M.5,1033h-1V0h1Z" transform="translate(3916.5 -110.5)"/>
        </g>
        <g id="그룹_13" data-name="그룹 13">
          <path id="선_48" data-name="선 48" d="M.5,743.5h-1V0h1Z" transform="translate(3269 538) rotate(-90)"/>
          <path id="선_69" data-name="선 69" d="M.5,743.5h-1V0h1Z" transform="translate(3269 682) rotate(-90)"/>
          <path id="선_75" data-name="선 75" d="M.5,743.5h-1V0h1Z" transform="translate(3269 826) rotate(-90)"/>
          <path id="선_39" data-name="선 39" d="M.5,743.5h-1V0h1Z" transform="translate(3269 154) rotate(-90)"/>
          <path id="선_49" data-name="선 49" d="M.5,743.5h-1V0h1Z" transform="translate(3269 346) rotate(-90)"/>
          <path id="선_33" data-name="선 33" d="M.5,743.5h-1V0h1Z" transform="translate(3269 -38) rotate(-90)"/>
          <path id="선_64" data-name="선 64" d="M.5,743.5h-1V0h1Z" transform="translate(3269 634) rotate(-90)"/>
          <path id="선_65" data-name="선 65" d="M.5,743.5h-1V0h1Z" transform="translate(3269 778) rotate(-90)"/>
          <path id="선_71" data-name="선 71" d="M.5,743.5h-1V0h1Z" transform="translate(3269 922) rotate(-90)"/>
          <path id="선_50" data-name="선 50" d="M.5,743.5h-1V0h1Z" transform="translate(3269 250) rotate(-90)"/>
          <path id="선_51" data-name="선 51" d="M.5,743.5h-1V0h1Z" transform="translate(3269 442) rotate(-90)"/>
          <path id="선_40" data-name="선 40" d="M.5,743.5h-1V0h1Z" transform="translate(3269 58) rotate(-90)"/>
          <path id="선_52" data-name="선 52" d="M.5,743.5h-1V0h1Z" transform="translate(3269 490) rotate(-90)"/>
          <path id="선_41" data-name="선 41" d="M.5,743.5h-1V0h1Z" transform="translate(3269 106) rotate(-90)"/>
          <path id="선_53" data-name="선 53" d="M.5,743.5h-1V0h1Z" transform="translate(3269 298) rotate(-90)"/>
          <path id="선_34" data-name="선 34" d="M.5,743.5h-1V0h1Z" transform="translate(3269 -86) rotate(-90)"/>
          <path id="선_54" data-name="선 54" d="M.5,743.5h-1V0h1Z" transform="translate(3269 586) rotate(-90)"/>
          <path id="선_67" data-name="선 67" d="M.5,743.5h-1V0h1Z" transform="translate(3269 730) rotate(-90)"/>
          <path id="선_73" data-name="선 73" d="M.5,743.5h-1V0h1Z" transform="translate(3269 874) rotate(-90)"/>
          <path id="선_42" data-name="선 42" d="M.5,743.5h-1V0h1Z" transform="translate(3269 202) rotate(-90)"/>
          <path id="선_55" data-name="선 55" d="M.5,743.5h-1V0h1Z" transform="translate(3269 394) rotate(-90)"/>
          <path id="선_35" data-name="선 35" d="M.5,743.5h-1V0h1Z" transform="translate(3269 10) rotate(-90)"/>
          <path id="선_56" data-name="선 56" d="M.5,743.5h-1V0h1Z" transform="translate(3269 514) rotate(-90)"/>
          <path id="선_70" data-name="선 70" d="M.5,743.5h-1V0h1Z" transform="translate(3269 658) rotate(-90)"/>
          <path id="선_76" data-name="선 76" d="M.5,743.5h-1V0h1Z" transform="translate(3269 802) rotate(-90)"/>
          <path id="선_43" data-name="선 43" d="M.5,743.5h-1V0h1Z" transform="translate(3269 130) rotate(-90)"/>
          <path id="선_57" data-name="선 57" d="M.5,743.5h-1V0h1Z" transform="translate(3269 322) rotate(-90)"/>
          <path id="선_36" data-name="선 36" d="M.5,743.5h-1V0h1Z" transform="translate(3269 -62) rotate(-90)"/>
          <path id="선_63" data-name="선 63" d="M.5,743.5h-1V0h1Z" transform="translate(3269 610) rotate(-90)"/>
          <path id="선_66" data-name="선 66" d="M.5,743.5h-1V0h1Z" transform="translate(3269 754) rotate(-90)"/>
          <path id="선_72" data-name="선 72" d="M.5,743.5h-1V0h1Z" transform="translate(3269 898) rotate(-90)"/>
          <path id="선_44" data-name="선 44" d="M.5,743.5h-1V0h1Z" transform="translate(3269 226) rotate(-90)"/>
          <path id="선_58" data-name="선 58" d="M.5,743.5h-1V0h1Z" transform="translate(3269 418) rotate(-90)"/>
          <path id="선_45" data-name="선 45" d="M.5,743.5h-1V0h1Z" transform="translate(3269 34) rotate(-90)"/>
          <path id="선_59" data-name="선 59" d="M.5,743.5h-1V0h1Z" transform="translate(3269 466) rotate(-90)"/>
          <path id="선_46" data-name="선 46" d="M.5,743.5h-1V0h1Z" transform="translate(3269 82) rotate(-90)"/>
          <path id="선_60" data-name="선 60" d="M.5,743.5h-1V0h1Z" transform="translate(3269 274) rotate(-90)"/>
          <path id="선_37" data-name="선 37" d="M.5,743.5h-1V0h1Z" transform="translate(3269 -110) rotate(-90)"/>
          <path id="선_61" data-name="선 61" d="M.5,743.5h-1V0h1Z" transform="translate(3269 562) rotate(-90)"/>
          <path id="선_68" data-name="선 68" d="M.5,743.5h-1V0h1Z" transform="translate(3269 706) rotate(-90)"/>
          <path id="선_74" data-name="선 74" d="M.5,743.5h-1V0h1Z" transform="translate(3269 850) rotate(-90)"/>
          <path id="선_47" data-name="선 47" d="M.5,743.5h-1V0h1Z" transform="translate(3269 178) rotate(-90)"/>
          <path id="선_62" data-name="선 62" d="M.5,743.5h-1V0h1Z" transform="translate(3269 370) rotate(-90)"/>
          <path id="선_38" data-name="선 38" d="M.5,743.5h-1V0h1Z" transform="translate(3269 -14) rotate(-90)"/>
        </g>
      </g>
    </g>
  </g>
</svg>
